<?xml version="1.0" encoding="UTF-8"?>
<svg width="148px" height="27px" viewBox="0 0 148 27" version="1.1" xmlns="http://www.w3.org/2000/svg" xmlns:xlink="http://www.w3.org/1999/xlink">
    <!-- Generator: Sketch 50.2 (55047) - http://www.bohemiancoding.com/sketch -->
    <title>Artboard 1</title>
    <desc>Created with Sketch.</desc>
    <defs>
        <path d="M18.65343,27 L9.575796,27 L9.575796,20.435294 L11.7345,18.317647 L16.43937,18.317647 L18.65343,20.435294 L18.65343,27 Z M9.575796,0 L18.65343,0 L18.65343,6.61765 L16.43937,8.68235 L11.7345,8.68235 L9.575796,6.61765 L9.575796,0 Z M28.22922,27 L19.15159,27 L19.15159,18.317647 L26.07052,18.317647 L28.22922,20.435294 L28.22922,27 Z M2.158705,0 L9.077633,0 L9.077633,8.68235 L0,8.68235 L0,2.06471 L2.158705,0 Z M19.15159,0 L28.22922,0 L28.22922,8.68235 L21.3103,8.68235 L19.15159,6.61765 L19.15159,0 Z M0,17.841176 L0,9.15882 L9.077633,9.15882 L9.077633,15.77647 L6.863576,17.841176 L0,17.841176 Z M6.863576,27 L0,27 L0,18.317647 L6.863576,18.317647 L9.077633,20.435294 L9.077633,24.935294 L6.863576,27 Z M21.3103,9.15882 L28.22922,9.15882 L28.22922,17.841176 L21.3103,17.841176 L19.15159,15.77647 L19.15159,11.22353 L21.3103,9.15882 Z M14.11461,14.77059 C13.39504,14.77059 12.84153,14.18824 12.84153,13.55294 C12.84153,12.86471 13.4504,12.33529 14.11461,12.33529 C14.83418,12.33529 15.3877,12.91765 15.3877,13.55294 C15.3877,14.18824 14.83418,14.77059 14.11461,14.77059 Z" id="path-1"></path>
        <path d="M18.65343,27 L9.575796,27 L9.575796,20.435294 L11.7345,18.317647 L16.43937,18.317647 L18.65343,20.435294 L18.65343,27 Z M9.575796,0 L18.65343,0 L18.65343,6.61765 L16.43937,8.68235 L11.7345,8.68235 L9.575796,6.61765 L9.575796,0 Z M28.22922,27 L19.15159,27 L19.15159,18.317647 L26.07052,18.317647 L28.22922,20.435294 L28.22922,27 Z M2.158705,0 L9.077633,0 L9.077633,8.68235 L0,8.68235 L0,2.06471 L2.158705,0 Z M19.15159,0 L28.22922,0 L28.22922,8.68235 L21.3103,8.68235 L19.15159,6.61765 L19.15159,0 Z M0,17.841176 L0,9.15882 L9.077633,9.15882 L9.077633,15.77647 L6.863576,17.841176 L0,17.841176 Z M6.863576,27 L0,27 L0,18.317647 L6.863576,18.317647 L9.077633,20.435294 L9.077633,24.935294 L6.863576,27 Z M21.3103,9.15882 L28.22922,9.15882 L28.22922,17.841176 L21.3103,17.841176 L19.15159,15.77647 L19.15159,11.22353 L21.3103,9.15882 Z M14.11461,14.77059 C13.39504,14.77059 12.84153,14.18824 12.84153,13.55294 C12.84153,12.86471 13.4504,12.33529 14.11461,12.33529 C14.83418,12.33529 15.3877,12.91765 15.3877,13.55294 C15.3877,14.18824 14.83418,14.77059 14.11461,14.77059 Z" id="path-3"></path>
        <path d="M12.71293,19.435294 C12.54687,19.435294 12.49152,19.382353 12.43617,19.223529 L10.16676,11.54706 L10.11141,11.54706 L7.842,19.223529 C7.78665,19.382353 7.7313,19.435294 7.56524,19.435294 L4.90837,19.435294 C4.74232,19.435294 4.68697,19.382353 4.63162,19.223529 L0.75702,5.88235 C0.75702,5.77647 0.75702,5.67059 0.92307,5.67059 L4.41021,5.67059 C4.57627,5.67059 4.68697,5.77647 4.68697,5.88235 L6.51357,13.87647 L6.56892,13.87647 L8.78297,5.88235 C8.83833,5.72353 8.89368,5.67059 9.05973,5.67059 L11.21844,5.67059 C11.38449,5.67059 11.43984,5.72353 11.49519,5.88235 L13.81995,13.87647 L13.87531,13.87647 L15.64655,5.88235 C15.64655,5.77647 15.75725,5.67059 15.92331,5.67059 L19.41045,5.67059 C19.52115,5.67059 19.5765,5.77647 19.5765,5.88235 L15.7019,19.223529 C15.64655,19.382353 15.5912,19.435294 15.42514,19.435294 L12.71293,19.435294 Z M22.34407,19.435294 C22.23337,19.435294 22.12267,19.329412 22.12267,19.223529 L22.12267,5.88235 C22.12267,5.77647 22.23337,5.67059 22.34407,5.67059 L28.10062,5.67059 C31.58776,5.67059 33.41436,7.57647 33.41436,10.22353 C33.41436,12.87059 31.58776,14.82941 28.10062,14.82941 L25.99727,14.82941 C25.88656,14.82941 25.88656,14.88235 25.88656,14.93529 L25.88656,19.170588 C25.88656,19.276471 25.77586,19.382353 25.66516,19.382353 L22.34407,19.382353 L22.34407,19.435294 Z M29.70581,10.27647 C29.70581,9.32353 29.04159,8.74118 27.87921,8.74118 L25.99727,8.74118 C25.88656,8.74118 25.88656,8.79412 25.88656,8.84706 L25.88656,11.70588 C25.88656,11.81176 25.94191,11.81176 25.99727,11.81176 L27.87921,11.81176 C29.04159,11.81176 29.70581,11.17647 29.70581,10.27647 Z M38.34063,16.047059 C38.06388,15.30588 37.95317,14.40588 37.95317,12.60588 C37.95317,10.85882 38.11923,9.90588 38.34063,9.16471 C39.0602,6.99412 40.83145,5.88235 43.10086,5.88235 C45.42562,5.88235 47.14151,6.99412 47.86108,9.16471 C48.13783,9.90588 48.24854,10.75294 48.24854,12.39412 C48.24854,12.55294 48.13783,12.65882 47.91643,12.65882 L38.89415,12.65882 C38.78344,12.65882 38.72809,12.76471 38.72809,12.87059 C38.72809,14.3 38.8388,15.09412 39.0602,15.78235 C39.72442,17.741176 41.21891,18.588235 43.21156,18.588235 C45.09351,18.588235 46.47729,17.794118 47.30756,16.735294 C47.41827,16.576471 47.58432,16.576471 47.69502,16.682353 L47.86108,16.841176 C48.02713,16.947059 48.02713,17.105882 47.91643,17.211765 C46.97546,18.482353 45.37026,19.382353 43.26691,19.382353 C40.7761,19.382353 39.11555,18.270588 38.34063,16.047059 Z M47.30756,11.91765 C47.41827,11.91765 47.47362,11.86471 47.47362,11.75882 C47.47362,10.85882 47.36291,10.11765 47.14151,9.48235 C46.53264,7.62941 45.09351,6.67647 43.15621,6.67647 C41.21891,6.67647 39.77977,7.57647 39.1709,9.48235 C38.9495,10.11765 38.8388,10.80588 38.8388,11.75882 C38.8388,11.86471 38.89415,11.91765 39.00485,11.91765 L47.30756,11.91765 Z M61.09007,19.117647 C60.92401,19.117647 60.81331,19.011765 60.81331,18.852941 L60.81331,11.12353 C60.81331,8.05294 59.48488,6.72941 56.88336,6.72941 C54.61395,6.72941 52.732,8.21176 52.732,10.75294 L52.732,18.905882 C52.732,19.064706 52.6213,19.170588 52.45525,19.170588 L52.17849,19.170588 C52.01243,19.170588 51.90173,19.064706 51.90173,18.905882 L51.90173,6.51765 C51.90173,6.35882 52.01243,6.25294 52.17849,6.25294 L52.45525,6.25294 C52.6213,6.25294 52.732,6.35882 52.732,6.51765 L52.732,8.31765 L52.78735,8.31765 C53.45157,6.83529 55.00141,5.93529 56.93871,5.93529 C59.98304,5.93529 61.69893,7.57647 61.69893,10.91176 L61.69893,18.852941 C61.69893,19.011765 61.58823,19.117647 61.42218,19.117647 L61.09007,19.117647 Z M65.7396,22.452941 C65.6289,22.294118 65.6289,22.135294 65.7949,22.082353 L66.0163,21.923529 C66.1824,21.817647 66.2931,21.870588 66.4038,22.029412 C67.1787,22.982353 68.3411,23.564706 70.0016,23.564706 C72.5478,23.564706 74.2084,22.347059 74.2084,19.170588 L74.2084,17 L74.153,17 C73.4888,18.429412 72.3264,19.435294 69.9463,19.435294 C67.6769,19.435294 66.127,18.270588 65.4628,16.364706 C65.1307,15.46471 65.02,14.3 65.02,12.71176 C65.02,11.12353 65.1861,9.95882 65.4628,9.05882 C66.127,7.15294 67.6769,5.98824 69.9463,5.98824 C72.3264,5.98824 73.4888,6.99412 74.153,8.42353 L74.2084,8.42353 L74.2084,6.57059 C74.2084,6.41176 74.3191,6.30588 74.4851,6.30588 L74.7619,6.30588 C74.9279,6.30588 75.0386,6.41176 75.0386,6.57059 L75.0386,19.223529 C75.0386,22.770588 73.046,24.358824 69.9463,24.358824 C68.009,24.305882 66.4038,23.458824 65.7396,22.452941 Z M73.8209,16.047059 C74.0977,15.25294 74.2084,14.3 74.2084,12.65882 C74.2084,11.07059 74.0977,10.06471 73.8209,9.27059 C73.1567,7.36471 71.7175,6.67647 70.057,6.67647 C68.2304,6.67647 66.902,7.52353 66.3485,9.21765 C66.0717,10.01176 65.9056,11.12353 65.9056,12.60588 C65.9056,14.08824 66.0717,15.2 66.3485,15.99412 C66.9573,17.688235 68.2304,18.535294 70.057,18.535294 C71.7175,18.641176 73.212,17.952941 73.8209,16.047059 Z M79.6881,2.22941 C79.5221,2.22941 79.4114,2.12353 79.4114,1.96471 L79.4114,0.90588 C79.4114,0.74706 79.5221,0.64118 79.6881,0.64118 L80.3524,0.64118 C80.5184,0.64118 80.6291,0.74706 80.6291,0.90588 L80.6291,2.01765 C80.6291,2.17647 80.5184,2.28235 80.3524,2.28235 L79.6881,2.28235 L79.6881,2.22941 Z M79.9096,19.117647 C79.7435,19.117647 79.6328,19.011765 79.6328,18.852941 L79.6328,6.51765 C79.6328,6.35882 79.7435,6.25294 79.9096,6.25294 L80.1863,6.25294 C80.3524,6.25294 80.4631,6.35882 80.4631,6.51765 L80.4631,18.852941 C80.4631,19.011765 80.3524,19.117647 80.1863,19.117647 L79.9096,19.117647 Z M94.2456,19.117647 C94.0795,19.117647 93.9688,19.011765 93.9688,18.852941 L93.9688,11.12353 C93.9688,8.05294 92.6404,6.72941 90.0389,6.72941 C87.7695,6.72941 85.8875,8.21176 85.8875,10.75294 L85.8875,18.905882 C85.8875,19.064706 85.7768,19.170588 85.6107,19.170588 L85.334,19.170588 C85.1679,19.170588 85.0572,19.064706 85.0572,18.905882 L85.0572,6.51765 C85.0572,6.35882 85.1679,6.25294 85.334,6.25294 L85.6107,6.25294 C85.7768,6.25294 85.8875,6.35882 85.8875,6.51765 L85.8875,8.31765 L85.9429,8.31765 C86.6071,6.83529 88.1569,5.93529 90.0942,5.93529 C93.1385,5.93529 94.8544,7.57647 94.8544,10.91176 L94.8544,18.852941 C94.8544,19.011765 94.7437,19.117647 94.5777,19.117647 L94.2456,19.117647 Z M98.6183,16.047059 C98.3416,15.30588 98.2309,14.40588 98.2309,12.60588 C98.2309,10.85882 98.3969,9.90588 98.6183,9.16471 C99.3379,6.99412 101.1091,5.88235 103.3786,5.88235 C105.7033,5.88235 107.4192,6.99412 108.1388,9.16471 C108.4155,9.90588 108.5262,10.75294 108.5262,12.39412 C108.5262,12.55294 108.4155,12.65882 108.1941,12.65882 L99.1718,12.65882 C99.0611,12.65882 99.0058,12.76471 99.0058,12.87059 C99.0058,14.3 99.1165,15.09412 99.3379,15.78235 C100.0021,17.741176 101.4966,18.588235 103.4893,18.588235 C105.3712,18.588235 106.755,17.794118 107.5853,16.735294 C107.696,16.576471 107.862,16.576471 107.9727,16.682353 L108.1388,16.841176 C108.3048,16.947059 108.3048,17.105882 108.1941,17.211765 C107.2532,18.482353 105.648,19.382353 103.5446,19.382353 C101.0538,19.382353 99.3379,18.270588 98.6183,16.047059 Z M107.5299,11.91765 C107.6406,11.91765 107.696,11.86471 107.696,11.75882 C107.696,10.85882 107.5853,10.11765 107.3639,9.48235 C106.755,7.62941 105.3159,6.67647 103.3786,6.67647 C101.4413,6.67647 100.0021,7.57647 99.3933,9.48235 C99.1718,10.11765 99.0611,10.80588 99.0611,11.75882 C99.0611,11.86471 99.1165,11.91765 99.2272,11.91765 L107.5299,11.91765 Z M109.1506,7.51961 C109.1506,6.68627 109.803,6.04902 110.6561,6.04902 C111.5093,6.04902 112.1617,6.68627 112.1617,7.51961 C112.1617,8.35294 111.5093,8.9902 110.6561,8.9902 C109.803,8.9902 109.1506,8.35294 109.1506,7.51961 Z M111.9108,7.51961 C111.9108,6.78431 111.3587,6.29412 110.6561,6.29412 C109.9033,6.29412 109.4015,6.83333 109.4015,7.51961 C109.4015,8.2549 109.9535,8.7451 110.6561,8.7451 C111.3587,8.7451 111.9108,8.2549 111.9108,7.51961 Z M110.1543,8.35294 C110.1041,8.35294 110.1041,8.35294 110.1041,8.30392 L110.1041,6.78431 C110.1041,6.73529 110.1041,6.73529 110.1543,6.73529 L110.7565,6.73529 C111.1078,6.73529 111.3086,6.93137 111.3086,7.22549 C111.3086,7.42157 111.2082,7.61765 110.9572,7.66667 L111.3086,8.30392 C111.3587,8.35294 111.3086,8.40196 111.2584,8.40196 L111.1078,8.40196 C111.0576,8.40196 111.0576,8.35294 111.0074,8.35294 L110.6561,7.71569 L110.3048,7.71569 L110.3048,8.30392 C110.3048,8.35294 110.2546,8.35294 110.2546,8.35294 L110.1543,8.35294 Z M111.0576,7.17647 C111.0576,7.02941 110.9572,6.93137 110.7565,6.93137 L110.355,6.93137 L110.355,7.42157 L110.7565,7.42157 C110.9572,7.42157 111.0576,7.32353 111.0576,7.17647 Z" id="path-5"></path>
        <path d="M79.6881,0.64118 L80.3524,0.64118 C80.5184,0.64118 80.6291,0.74706 80.6291,0.90588 L80.6291,2.01765 C80.6291,2.17647 80.5184,2.28235 80.3524,2.28235 L79.6881,2.28235 L79.6881,2.22941 C79.5221,2.22941 79.4114,2.12353 79.4114,1.96471 L79.4114,0.90588 C79.4114,0.74706 79.5221,0.64118 79.6881,0.64118 Z M12.71293,19.435294 C12.54687,19.435294 12.49152,19.382353 12.43617,19.223529 L10.16676,11.54706 L10.11141,11.54706 L7.842,19.223529 C7.78665,19.382353 7.7313,19.435294 7.56524,19.435294 L4.90837,19.435294 C4.74232,19.435294 4.68697,19.382353 4.63162,19.223529 L0.75702,5.88235 C0.75702,5.77647 0.75702,5.67059 0.92307,5.67059 L4.41021,5.67059 C4.57627,5.67059 4.68697,5.77647 4.68697,5.88235 L6.51357,13.87647 L6.56892,13.87647 L8.78297,5.88235 C8.83833,5.72353 8.89368,5.67059 9.05973,5.67059 L11.21844,5.67059 C11.38449,5.67059 11.43984,5.72353 11.49519,5.88235 L13.81995,13.87647 L13.87531,13.87647 L15.64655,5.88235 C15.64655,5.77647 15.75725,5.67059 15.92331,5.67059 L19.41045,5.67059 C19.52115,5.67059 19.5765,5.77647 19.5765,5.88235 L15.7019,19.223529 C15.64655,19.382353 15.5912,19.435294 15.42514,19.435294 L12.71293,19.435294 Z M22.34407,19.435294 C22.23337,19.435294 22.12267,19.329412 22.12267,19.223529 L22.12267,5.88235 C22.12267,5.77647 22.23337,5.67059 22.34407,5.67059 L28.10062,5.67059 C31.58776,5.67059 33.41436,7.57647 33.41436,10.22353 C33.41436,12.87059 31.58776,14.82941 28.10062,14.82941 L25.99727,14.82941 C25.88656,14.82941 25.88656,14.88235 25.88656,14.93529 L25.88656,19.170588 C25.88656,19.276471 25.77586,19.382353 25.66516,19.382353 L22.34407,19.382353 L22.34407,19.435294 Z M29.70581,10.27647 C29.70581,9.32353 29.04159,8.74118 27.87921,8.74118 L25.99727,8.74118 C25.88656,8.74118 25.88656,8.79412 25.88656,8.84706 L25.88656,11.70588 C25.88656,11.81176 25.94191,11.81176 25.99727,11.81176 L27.87921,11.81176 C29.04159,11.81176 29.70581,11.17647 29.70581,10.27647 Z M38.34063,16.047059 C38.06388,15.30588 37.95317,14.40588 37.95317,12.60588 C37.95317,10.85882 38.11923,9.90588 38.34063,9.16471 C39.0602,6.99412 40.83145,5.88235 43.10086,5.88235 C45.42562,5.88235 47.14151,6.99412 47.86108,9.16471 C48.13783,9.90588 48.24854,10.75294 48.24854,12.39412 C48.24854,12.55294 48.13783,12.65882 47.91643,12.65882 L38.89415,12.65882 C38.78344,12.65882 38.72809,12.76471 38.72809,12.87059 C38.72809,14.3 38.8388,15.09412 39.0602,15.78235 C39.72442,17.741176 41.21891,18.588235 43.21156,18.588235 C45.09351,18.588235 46.47729,17.794118 47.30756,16.735294 C47.41827,16.576471 47.58432,16.576471 47.69502,16.682353 L47.86108,16.841176 C48.02713,16.947059 48.02713,17.105882 47.91643,17.211765 C46.97546,18.482353 45.37026,19.382353 43.26691,19.382353 C40.7761,19.382353 39.11555,18.270588 38.34063,16.047059 Z M47.30756,11.91765 C47.41827,11.91765 47.47362,11.86471 47.47362,11.75882 C47.47362,10.85882 47.36291,10.11765 47.14151,9.48235 C46.53264,7.62941 45.09351,6.67647 43.15621,6.67647 C41.21891,6.67647 39.77977,7.57647 39.1709,9.48235 C38.9495,10.11765 38.8388,10.80588 38.8388,11.75882 C38.8388,11.86471 38.89415,11.91765 39.00485,11.91765 L47.30756,11.91765 Z M61.09007,19.117647 C60.92401,19.117647 60.81331,19.011765 60.81331,18.852941 L60.81331,11.12353 C60.81331,8.05294 59.48488,6.72941 56.88336,6.72941 C54.61395,6.72941 52.732,8.21176 52.732,10.75294 L52.732,18.905882 C52.732,19.064706 52.6213,19.170588 52.45525,19.170588 L52.17849,19.170588 C52.01243,19.170588 51.90173,19.064706 51.90173,18.905882 L51.90173,6.51765 C51.90173,6.35882 52.01243,6.25294 52.17849,6.25294 L52.45525,6.25294 C52.6213,6.25294 52.732,6.35882 52.732,6.51765 L52.732,8.31765 L52.78735,8.31765 C53.45157,6.83529 55.00141,5.93529 56.93871,5.93529 C59.98304,5.93529 61.69893,7.57647 61.69893,10.91176 L61.69893,18.852941 C61.69893,19.011765 61.58823,19.117647 61.42218,19.117647 L61.09007,19.117647 Z M65.7396,22.452941 C65.6289,22.294118 65.6289,22.135294 65.7949,22.082353 L66.0163,21.923529 C66.1824,21.817647 66.2931,21.870588 66.4038,22.029412 C67.1787,22.982353 68.3411,23.564706 70.0016,23.564706 C72.5478,23.564706 74.2084,22.347059 74.2084,19.170588 L74.2084,17 L74.153,17 C73.4888,18.429412 72.3264,19.435294 69.9463,19.435294 C67.6769,19.435294 66.127,18.270588 65.4628,16.364706 C65.1307,15.46471 65.02,14.3 65.02,12.71176 C65.02,11.12353 65.1861,9.95882 65.4628,9.05882 C66.127,7.15294 67.6769,5.98824 69.9463,5.98824 C72.3264,5.98824 73.4888,6.99412 74.153,8.42353 L74.2084,8.42353 L74.2084,6.57059 C74.2084,6.41176 74.3191,6.30588 74.4851,6.30588 L74.7619,6.30588 C74.9279,6.30588 75.0386,6.41176 75.0386,6.57059 L75.0386,19.223529 C75.0386,22.770588 73.046,24.358824 69.9463,24.358824 C68.009,24.305882 66.4038,23.458824 65.7396,22.452941 Z M73.8209,16.047059 C74.0977,15.25294 74.2084,14.3 74.2084,12.65882 C74.2084,11.07059 74.0977,10.06471 73.8209,9.27059 C73.1567,7.36471 71.7175,6.67647 70.057,6.67647 C68.2304,6.67647 66.902,7.52353 66.3485,9.21765 C66.0717,10.01176 65.9056,11.12353 65.9056,12.60588 C65.9056,14.08824 66.0717,15.2 66.3485,15.99412 C66.9573,17.688235 68.2304,18.535294 70.057,18.535294 C71.7175,18.641176 73.212,17.952941 73.8209,16.047059 Z M79.9096,19.117647 C79.7435,19.117647 79.6328,19.011765 79.6328,18.852941 L79.6328,6.51765 C79.6328,6.35882 79.7435,6.25294 79.9096,6.25294 L80.1863,6.25294 C80.3524,6.25294 80.4631,6.35882 80.4631,6.51765 L80.4631,18.852941 C80.4631,19.011765 80.3524,19.117647 80.1863,19.117647 L79.9096,19.117647 Z M94.2456,19.117647 C94.0795,19.117647 93.9688,19.011765 93.9688,18.852941 L93.9688,11.12353 C93.9688,8.05294 92.6404,6.72941 90.0389,6.72941 C87.7695,6.72941 85.8875,8.21176 85.8875,10.75294 L85.8875,18.905882 C85.8875,19.064706 85.7768,19.170588 85.6107,19.170588 L85.334,19.170588 C85.1679,19.170588 85.0572,19.064706 85.0572,18.905882 L85.0572,6.51765 C85.0572,6.35882 85.1679,6.25294 85.334,6.25294 L85.6107,6.25294 C85.7768,6.25294 85.8875,6.35882 85.8875,6.51765 L85.8875,8.31765 L85.9429,8.31765 C86.6071,6.83529 88.1569,5.93529 90.0942,5.93529 C93.1385,5.93529 94.8544,7.57647 94.8544,10.91176 L94.8544,18.852941 C94.8544,19.011765 94.7437,19.117647 94.5777,19.117647 L94.2456,19.117647 Z M98.6183,16.047059 C98.3416,15.30588 98.2309,14.40588 98.2309,12.60588 C98.2309,10.85882 98.3969,9.90588 98.6183,9.16471 C99.3379,6.99412 101.1091,5.88235 103.3786,5.88235 C105.7033,5.88235 107.4192,6.99412 108.1388,9.16471 C108.4155,9.90588 108.5262,10.75294 108.5262,12.39412 C108.5262,12.55294 108.4155,12.65882 108.1941,12.65882 L99.1718,12.65882 C99.0611,12.65882 99.0058,12.76471 99.0058,12.87059 C99.0058,14.3 99.1165,15.09412 99.3379,15.78235 C100.0021,17.741176 101.4966,18.588235 103.4893,18.588235 C105.3712,18.588235 106.755,17.794118 107.5853,16.735294 C107.696,16.576471 107.862,16.576471 107.9727,16.682353 L108.1388,16.841176 C108.3048,16.947059 108.3048,17.105882 108.1941,17.211765 C107.2532,18.482353 105.648,19.382353 103.5446,19.382353 C101.0538,19.382353 99.3379,18.270588 98.6183,16.047059 Z M107.5299,11.91765 C107.6406,11.91765 107.696,11.86471 107.696,11.75882 C107.696,10.85882 107.5853,10.11765 107.3639,9.48235 C106.755,7.62941 105.3159,6.67647 103.3786,6.67647 C101.4413,6.67647 100.0021,7.57647 99.3933,9.48235 C99.1718,10.11765 99.0611,10.80588 99.0611,11.75882 C99.0611,11.86471 99.1165,11.91765 99.2272,11.91765 L107.5299,11.91765 Z M109.1506,7.51961 C109.1506,6.68627 109.803,6.04902 110.6561,6.04902 C111.5093,6.04902 112.1617,6.68627 112.1617,7.51961 C112.1617,8.35294 111.5093,8.9902 110.6561,8.9902 C109.803,8.9902 109.1506,8.35294 109.1506,7.51961 Z M111.9108,7.51961 C111.9108,6.78431 111.3587,6.29412 110.6561,6.29412 C109.9033,6.29412 109.4015,6.83333 109.4015,7.51961 C109.4015,8.2549 109.9535,8.7451 110.6561,8.7451 C111.3587,8.7451 111.9108,8.2549 111.9108,7.51961 Z M110.1543,8.35294 C110.1041,8.35294 110.1041,8.35294 110.1041,8.30392 L110.1041,6.78431 C110.1041,6.73529 110.1041,6.73529 110.1543,6.73529 L110.7565,6.73529 C111.1078,6.73529 111.3086,6.93137 111.3086,7.22549 C111.3086,7.42157 111.2082,7.61765 110.9572,7.66667 L111.3086,8.30392 C111.3587,8.35294 111.3086,8.40196 111.2584,8.40196 L111.1078,8.40196 C111.0576,8.40196 111.0576,8.35294 111.0074,8.35294 L110.6561,7.71569 L110.3048,7.71569 L110.3048,8.30392 C110.3048,8.35294 110.2546,8.35294 110.2546,8.35294 L110.1543,8.35294 Z M111.0576,7.17647 C111.0576,7.02941 110.9572,6.93137 110.7565,6.93137 L110.355,6.93137 L110.355,7.42157 L110.7565,7.42157 C110.9572,7.42157 111.0576,7.32353 111.0576,7.17647 Z" id="path-7"></path>
    </defs>
    <g id="Artboard-1" stroke="none" stroke-width="1" fill="none" fill-rule="evenodd">
        <g id="Group-7">
            <g id="Group-3">
                <mask id="mask-2" fill="white">
                    <use xlink:href="#path-1"></use>
                </mask>
                <g id="Clip-2"></g>
                <polygon id="Fill-1" fill="#40BAC8" mask="url(#mask-2)" points="-5 -5 33.22922 -5 33.22922 32 -5 32"></polygon>
            </g>
            <g id="Group-6">
                <mask id="mask-4" fill="white">
                    <use xlink:href="#path-3"></use>
                </mask>
                <g id="Clip-5"></g>
                <polygon id="Fill-4" fill="#0ECAD4" mask="url(#mask-4)" points="-5 -5 34 -5 34 32 -5 32"></polygon>
            </g>
        </g>
        <g id="Group-14" transform="translate(35.000000, 1.000000)">
            <g id="Group-10">
                <mask id="mask-6" fill="white">
                    <use xlink:href="#path-5"></use>
                </mask>
                <g id="Clip-9"></g>
                <polygon id="Fill-8" fill="#162A33" mask="url(#mask-6)" points="-4.24298 -4.35882 117.1617 -4.35882 117.1617 29.358824 -4.24298 29.358824"></polygon>
            </g>
            <g id="Group-13">
                <mask id="mask-8" fill="white">
                    <use xlink:href="#path-7"></use>
                </mask>
                <g id="Clip-12"></g>
                <polygon id="Fill-11" fill="#002838" mask="url(#mask-8)" points="-4.24298 -4.35882 117.757 -4.35882 117.757 29.641176 -4.24298 29.641176"></polygon>
            </g>
        </g>
    </g>
</svg>